<?xml version="1.0" encoding="UTF-8" standalone="no"?>
<!-- Created with Inkscape (http://www.inkscape.org/) -->

<svg
   width="50mm"
   height="50mm"
   viewBox="0 0 50 50"
   version="1.1"
   id="svg5167"
   inkscape:version="1.1 (c68e22c387, 2021-05-23)"
   sodipodi:docname="alien.svg"
   inkscape:export-filename="F:\Niveaux\SNT\Cours\2 - Introduction à Python\alien.png"
   inkscape:export-xdpi="25.4"
   inkscape:export-ydpi="25.4"
   xmlns:inkscape="http://www.inkscape.org/namespaces/inkscape"
   xmlns:sodipodi="http://sodipodi.sourceforge.net/DTD/sodipodi-0.dtd"
   xmlns="http://www.w3.org/2000/svg"
   xmlns:svg="http://www.w3.org/2000/svg">
  <sodipodi:namedview
     id="namedview5169"
     pagecolor="#ffffff"
     bordercolor="#666666"
     borderopacity="1.0"
     inkscape:pageshadow="2"
     inkscape:pageopacity="0.0"
     inkscape:pagecheckerboard="0"
     inkscape:document-units="mm"
     showgrid="false"
     inkscape:zoom="1.4823793"
     inkscape:cx="36.427924"
     inkscape:cy="169.65968"
     inkscape:window-width="1920"
     inkscape:window-height="1017"
     inkscape:window-x="-8"
     inkscape:window-y="-8"
     inkscape:window-maximized="1"
     inkscape:current-layer="use1494" />
  <defs
     id="defs5164" />
  <g
     inkscape:label="Calque 1"
     inkscape:groupmode="layer"
     id="layer1">
    <g
       id="g5457"
       transform="matrix(6.0916115,0,0,6.0916115,-753.48158,-853.50994)">
      <g
         id="g1492"
         transform="matrix(0.26458333,0,0,0.26458333,125.0375,139.79907)">
        <g
           id="use1490"
           transform="scale(0.26458333)">
          <path
             fill="#6fc4a9"
             stroke="none"
             d="m 54.6,99.5 q -3,1.8 -6.55,2.75 l 1.5,7.75 H 57.9 V 96.95 q -1.35,1.35 -3.3,2.55 m -23.85,2.75 Q 27.2,101.3 24.2,99.5 22.25,98.3 20.9,96.95 V 110 h 8.35 z"
             id="path5301" />
          <path
             fill="#64b89d"
             stroke="none"
             d="M 57.9,96.95 V 91.7 Q 57.95,89 56.05,87 54.1,84.85 51.3,84.9 48.6,84.85 46.95,87 45.55,89 46,91.7 l 2.05,10.55 q 3.55,-0.95 6.55,-2.75 1.95,-1.2 3.3,-2.55 M 32.8,91.7 Q 33.25,89 31.85,87 30.2,84.85 27.5,84.9 24.7,84.85 22.75,87 q -1.9,2 -1.85,4.7 v 5.25 q 1.35,1.35 3.3,2.55 3,1.8 6.55,2.75 z"
             id="path5303" />
        </g>
      </g>
      <g
         id="g1496"
         transform="matrix(0.26458333,0,0,0.26458333,125.0375,139.79907)">
        <g
           id="use1494"
           transform="scale(0.26458333)">
          <path
             fill="#6fc4a9"
             stroke="none"
             d="m 60.9,49.3 q -0.2,-8.6 -6.3,-14.7 -6.3,-6.3 -15.2,-6.3 -8.9,0 -15.2,6.3 -6.1,6.1 -6.3,14.7 v 39.15 q 0.15,5.3 6.3,9.05 6.3,3.8 15.2,3.8 8.9,0 15.2,-3.8 6.15,-3.75 6.3,-9.05 z"
             id="path5311"
             style="fill:#92d3be;fill-opacity:1" />
          <path
             fill="#89d9c0"
             stroke="none"
             d="m 60.9,49.3 v -1.5 q 0,-8.9 -6.3,-15.2 -6.3,-6.3 -15.2,-6.3 -8.9,0 -15.2,6.3 -6.3,6.3 -6.3,15.2 v 1.5 q 0.2,-8.6 6.3,-14.7 6.3,-6.3 15.2,-6.3 8.9,0 15.2,6.3 6.1,6.1 6.3,14.7 z"
             id="path5313" />
        </g>
      </g>
      <g
         id="g1500"
         transform="matrix(0.26458333,0,0,0.26458333,125.0375,139.79907)">
        <g
           id="use1498"
           transform="scale(0.26458333)">
          <path
             fill="#347e67"
             stroke="none"
             d="m 53.25,59.25 q 0,-2 -1.5,-3.5 -1.45,-1.45 -3.45,-1.45 -2.1,0 -3.6,1.45 -1.4,1.5 -1.4,3.5 0,2 1.4,3.4 1.5,1.5 3.6,1.5 2,0 3.45,-1.5 1.5,-1.4 1.5,-3.4 m -20.2,7.1 q -0.4,0.1 -0.55,0.5 -0.2,0.35 -0.1,0.75 0.4,1.45 1.9,2.55 2.1,1.65 5.1,1.65 2.95,0 5.05,-1.65 1.35,-1.1 1.95,-2.45 0.15,-0.4 0,-0.8 -0.25,-0.4 -0.6,-0.5 -0.4,-0.2 -0.8,0 -0.4,0.15 -0.5,0.55 -0.4,0.9 -1.3,1.65 -1.6,1.2 -3.8,1.2 -2.3,0 -3.85,-1.2 -0.9,-0.7 -1.2,-1.6 -0.1,-0.4 -0.45,-0.55 -0.4,-0.2 -0.85,-0.1 m 1,-10.6 Q 32.6,54.3 30.6,54.3 q -2.1,0 -3.6,1.45 -1.4,1.5 -1.4,3.5 0,2 1.4,3.4 1.5,1.5 3.6,1.5 2,0 3.45,-1.5 1.5,-1.4 1.5,-3.4 0,-2 -1.5,-3.5 z"
             id="path5321" />
        </g>
      </g>
      <g
         id="g1504"
         transform="matrix(0.26458333,0,0,0.26458333,125.0375,139.79907)">
        <g
           id="use1502"
           transform="scale(0.26458333)">
          <path
             fill="#6fc4a9"
             stroke="none"
             d="m 68.3,90.65 q 1.05,0 1.8,-0.7 0.7,-0.7 0.75,-1.75 Q 71.15,75.65 59.3,71 59.15,70.9 59,70.9 v 9.2 q 7,-0.2 6.85,8 0,1.05 0.7,1.8 0.7,0.75 1.75,0.75 M 8.7,89.95 q 0.75,0.7 1.8,0.7 1.05,0 1.75,-0.75 0.7,-0.75 0.7,-1.8 -0.15,-8.2 6.85,-8 V 70.9 Q 19.65,70.9 19.5,71 7.65,75.65 7.95,88.2 8,89.25 8.7,89.95 Z"
             id="path5307" />
        </g>
      </g>
      <g
         id="g1508"
         transform="matrix(0.26458333,0,0,0.26458333,125.0375,139.79907)">
        <g
           id="use1506"
           transform="scale(0.26458333)">
          <path
             fill="#8bcfba"
             fill-opacity="0.501961"
             stroke="none"
             d="m 49.5,90.75 q -0.6,0.6 -0.6,1.45 0,0.85 0.6,1.45 0.6,0.6 1.45,0.6 0.85,0 1.45,-0.6 0.6,-0.6 0.6,-1.45 0,-0.85 -0.6,-1.45 -0.6,-0.6 -1.45,-0.6 -0.85,0 -1.45,0.6 m 2.25,-7.3 q -0.85,0.85 -0.85,2.05 0,1.2 0.85,2.05 0.85,0.85 2.05,0.85 1.2,0 2.05,-0.85 0.85,-0.85 0.85,-2.05 0,-1.2 -0.85,-2.05 Q 55,82.6 53.8,82.6 q -1.2,0 -2.05,0.85 M 39.3,90.5 q -1.15,1.15 -1.15,2.8 0,1.65 1.15,2.8 1.15,1.15 2.8,1.15 1.65,0 2.8,-1.15 1.15,-1.15 1.15,-2.8 0,-1.65 -1.15,-2.8 -1.15,-1.15 -2.8,-1.15 -1.65,0 -2.8,1.15 z"
             id="path5317" />
        </g>
      </g>
      <g
         id="g1512"
         transform="matrix(0.26458333,0,0,0.26458333,125.0375,139.79907)">
        <g
           id="use1510"
           transform="scale(0.26458333)">
          <path
             fill="#ffffff"
             stroke="none"
             d="m 72,48.75 q 0,-0.9 -0.05,-1.8 Q 71.35,34.6 62.5,25.75 52.9,16.2 39.4,16.2 q -13.5,0 -23,9.55 -8.95,8.85 -9.55,21.2 -0.05,0.9 -0.05,1.8 0,0.9 0.05,1.75 0.15,2.9 0.75,5.65 1.95,8.85 8.8,15.7 9.5,9.5 23,9.5 13.5,0 23.1,-9.5 Q 69.3,65 71.25,56.15 71.8,53.4 71.95,50.5 72,49.65 72,48.75 m -5.05,-1.8 q 0.05,0.9 0.05,1.8 0,0.9 -0.05,1.75 -0.15,2.95 -0.85,5.65 -1.8,6.8 -7.15,12.15 Q 50.8,76.35 39.4,76.35 28,76.35 19.95,68.3 14.6,62.95 12.75,56.15 12,53.45 11.85,50.5 11.8,49.65 11.8,48.75 q 0,-0.9 0.05,-1.8 0.6,-10.25 8.1,-17.65 8.05,-8.1 19.45,-8.1 11.4,0 19.55,8.1 7.4,7.4 8,17.65 z"
             id="path5325" />
          <path
             fill="#ffffff"
             fill-opacity="0.2"
             stroke="none"
             d="m 67,48.75 q 0,-0.9 -0.05,-1.8 -0.6,-10.25 -8,-17.65 -8.15,-8.1 -19.55,-8.1 -11.4,0 -19.45,8.1 -7.5,7.4 -8.1,17.65 -0.05,0.9 -0.05,1.8 0,0.9 0.05,1.75 0.15,2.95 0.9,5.65 1.85,6.8 7.2,12.15 8.05,8.05 19.45,8.05 11.4,0 19.55,-8.05 5.35,-5.35 7.15,-12.15 0.7,-2.7 0.85,-5.65 Q 67,49.65 67,48.75 M 64.45,47.1 q 0.05,0.8 0.05,1.65 0,0.8 -0.05,1.6 v 0.05 q -0.15,3 -0.95,5.75 -20.3,7.55 -48.15,0 -0.8,-2.75 -1,-5.8 -0.05,-0.8 -0.05,-1.6 0,-0.85 0.05,-1.65 0.55,-9.3 7.35,-16 l 0.05,-0.05 q 7.3,-7.35 17.65,-7.35 10.4,0 17.8,7.4 6.7,6.7 7.25,16 z"
             id="path5327" />
          <path
             fill="#ffffff"
             fill-opacity="0.301961"
             stroke="none"
             d="m 64.5,48.75 q 0,-0.85 -0.05,-1.65 -0.55,-9.3 -7.25,-16 -7.4,-7.4 -17.8,-7.4 -10.35,0 -17.65,7.35 L 21.7,31.1 q -6.8,6.7 -7.35,16 -0.05,0.8 -0.05,1.65 0,0.8 0.05,1.6 0.2,3.05 1,5.8 27.85,7.55 48.15,0 0.8,-2.75 0.95,-5.75 v -0.05 q 0.05,-0.8 0.05,-1.6 z"
             id="path5329" />
        </g>
      </g>
    </g>
  </g>
</svg>
